<svg width="10" height="10" viewBox="0 0 10 10" fill="none" xmlns="http://www.w3.org/2000/svg">
<path d="M0.866833 1.45282L0.912868 0.620575C0.93236 0.268182 1.23339 -0.00995105 1.58424 0.000264601L8.87933 0.171772C9.23216 0.180158 9.50167 0.471851 9.4804 0.822325L9.07729 8.11011C9.0578 8.4625 8.75677 8.74063 8.40592 8.73042L7.57263 8.71061C7.21605 8.70214 6.94518 8.40103 6.97239 8.04506L7.32333 3.63707L1.63152 8.89599C1.36812 9.13936 0.966495 9.12981 0.730675 8.87458L0.163288 8.26049C-0.0725317 8.00526 -0.0503437 7.60413 0.213056 7.36076L5.90486 2.10185L1.48292 2.10373C1.12394 2.10458 0.845153 1.81079 0.866833 1.45282Z" fill="#D0D1F5"/>
</svg>
